<svg xmlns="http://www.w3.org/2000/svg" xmlns:xlink="http://www.w3.org/1999/xlink" viewBox="0 0 400 400">
  <defs>
    <radialGradient id="a" cx="239.84" cy="246.01" r="109.68" fx="288.92105811" fy="344.09213928" gradientUnits="userSpaceOnUse">
      <stop offset="0" stop-color="#dcdddd"/>
      <stop offset=".47" stop-color="#dedfdf"/>
      <stop offset=".64" stop-color="#e5e5e5"/>
      <stop offset=".76" stop-color="#f0f1f1"/>
      <stop offset=".85" stop-color="#fff"/>
    </radialGradient>
    <radialGradient id="e" cx="215.04" cy="218.03" r="122.04" gradientUnits="userSpaceOnUse">
      <stop offset="0" stop-color="#dcdddd"/>
      <stop offset=".26" stop-color="#dedfdf"/>
      <stop offset=".35" stop-color="#e5e5e5"/>
      <stop offset=".42" stop-color="#f0f1f1"/>
      <stop offset=".46" stop-color="#fff"/>
    </radialGradient>
    <radialGradient id="i" cx="323.32" cy="321.86" r=".5" gradientUnits="userSpaceOnUse">
      <stop offset="0" stop-color="#dcdddd"/>
      <stop offset=".2" stop-color="#f5f6f6"/>
      <stop offset=".33" stop-color="#fff"/>
    </radialGradient>
    <radialGradient id="j" cx="211.84" cy="214.25" r="60.95" gradientUnits="userSpaceOnUse">
      <stop offset="0" stop-color="#dcdddd"/>
      <stop offset=".09" stop-color="#e9e9e9"/>
      <stop offset=".23" stop-color="#f5f6f6"/>
      <stop offset=".41" stop-color="#fdfdfd"/>
      <stop offset=".81" stop-color="#fff"/>
    </radialGradient>
    <radialGradient id="b" cx="197.3" cy="213.9" r="101.74" gradientUnits="userSpaceOnUse">
      <stop offset="0" stop-color="#dcdddd"/>
      <stop offset=".1" stop-color="#e2e3e3"/>
      <stop offset=".61" stop-color="#fff"/>
    </radialGradient>
    <radialGradient xlink:href="#a" id="k" cx="161.39" cy="233.92" r="114.6" fx="54.46918604" fy="192.6604035"/>
    <radialGradient id="l" cx="142.45" cy="225.65" r="83.64" fx="70.10835391" fy="183.66127536" gradientUnits="userSpaceOnUse">
      <stop offset="0" stop-color="#dcdddd"/>
      <stop offset=".56" stop-color="#dedfdf"/>
      <stop offset=".76" stop-color="#e5e5e5"/>
      <stop offset=".9" stop-color="#f0f1f1"/>
      <stop offset="1" stop-color="#fff"/>
    </radialGradient>
    <radialGradient xlink:href="#b" id="m" cx="156.17" cy="206.48" r="97.14"/>
    <radialGradient xlink:href="#b" id="n" cx="141.58" cy="205.22" r="77.58"/>
    <radialGradient xlink:href="#b" id="o" cx="198.42" cy="208.52" r="59.52"/>
    <radialGradient xlink:href="#b" id="p" cx="189.08" cy="217.02" r="113.1"/>
    <linearGradient id="c" x1="100.2" x2="100.2" y1="262.36" y2="287.36" gradientUnits="userSpaceOnUse">
      <stop offset="0" stop-color="#956134"/>
      <stop offset=".14" stop-color="#a37a50"/>
      <stop offset=".44" stop-color="#bea987"/>
      <stop offset=".59" stop-color="#c9bc9c"/>
    </linearGradient>
    <linearGradient xlink:href="#c" id="f" x1="304.85" x2="304.85" y1="258.19" y2="286.2"/>
    <linearGradient id="d" x1="234.33" x2="370.95" y1="236.78" y2="203.42" gradientUnits="userSpaceOnUse">
      <stop offset="0" stop-color="#dcdddd"/>
      <stop offset=".81" stop-color="#fff"/>
    </linearGradient>
    <linearGradient xlink:href="#d" id="g" x1="232.07" x2="348.08" y1="226.72" y2="183.8"/>
    <linearGradient xlink:href="#e" id="h" x1="207.21" x2="288.93" y1="244.21" y2="135.2"/>
    <linearGradient id="q" x1="203.51" x2="203.25" y1="270.52" y2="296.34" gradientUnits="userSpaceOnUse">
      <stop offset="0" stop-color="#3e3a39"/>
      <stop offset=".09" stop-color="#595656"/>
      <stop offset=".47" stop-color="#c9caca"/>
    </linearGradient>
  </defs>
  <g stroke="#231815" stroke-linejoin="round" data-name="レイヤー 14">
    <path fill="#63451f" d="M45.3 241 7.7 282.59a.88.88 0 0 0 .67 1.47l164.8-4.23a.81.81 0 0 0 .31-.06 6.75 6.75 0 0 0 2.77-1.9.81.81 0 0 1 .81-.42l1.18.18a.87.87 0 0 1 .74.76 5 5 0 0 0 3.52 4.47c3.7 1.06 37.7 1 41-1.16 1.68-1.1 2.12-2 2.16-2.58a.89.89 0 0 1 .87-.88.86.86 0 0 1 .81.58 2.68 2.68 0 0 0 1.59 1.79c1.34.41 145.19.6 164.39.62a.87.87 0 0 0 .62-1.49l-41.87-42.11a.86.86 0 0 0-.64-.26l-305.49 3.32a.93.93 0 0 0-.64.31Z"/>
    <path fill="url(#c)" d="M182.82 275.86c-5.12-3.5-40.25-19-98-6.5s-67.25 9.5-67.25 9.5Z"/>
    <path fill="url(#f)" d="M223.88 275.5c19.94-10.93 50.69-19.8 105.28-10.93 51.4 8.36 56.66 12.46 56.66 12.46Z"/>
  </g>
  <g stroke-miterlimit="10" data-name="ページ１">
    <path fill="url(#a)" stroke="#231815" d="M342.74 217.27c1.56.57 14.29 25.32 14.29 25.32s-93.72-22.39-150.38 10.27c0 0 67.74-60.79 136.09-35.59Z"/>
    <path fill="url(#d)" stroke="#231815" d="m353.91 206 6.09 13.91s-110.67 5.49-136.51 21.71S299.5 185.73 353.91 206Z"/>
    <path fill="url(#g)" stroke="#231815" d="M294.81 176.68c3.6-1 37.85-7.32 37.85-7.32l24 36.22s-123 15.77-150 58c-.01.03 17.63-68.42 88.15-86.9Z"/>
    <path fill="url(#e)" stroke="#231815" d="m306.19 145.28 26.47 10.58s-104.59 47.69-129.46 116l-16.78-8.26s76.3-122.24 119.77-118.32Z"/>
    <path fill="url(#h)" stroke="#231815" d="m261.91 123.56 60.75 15s-91.59 27.33-119.46 133.31l-16.78-8.26s54.08-118.02 75.49-140.05Z"/>
    <path fill="url(#i)" stroke="#231815" d="m239.33 116.11 30.49-5s-62 93-67.75 153.46c-6.26-41.71 6.84-106.01 37.26-148.46Z"/>
    <path fill="url(#j)" stroke="#231815" d="m223.48 110.36 20.34-9.25c-20.34 34.75-42.5 130.53-40.72 141.28 1.73 10.42-1.56 24-1.56 24L194.85 182c3.47-32.14 18.93-68.3 28.63-71.64Z"/>
    <path fill="url(#b)" stroke="#231815" d="m178.41 103.19 8-5.07c5.32 23.29 12.89 101 16.78 168.64l-9.19 1.91Z"/>
    <path fill="url(#k)" stroke="#231815" d="m53.07 219.91-10.5 17.45s129.1-1.1 137.63 5c0 .03-26.88-30.89-127.13-22.45Z"/>
    <path fill="url(#l)" stroke="#231815" d="m55.82 209.45-8 10.16s107.59-.5 120.25 14.25c0 0-66.26-41.2-112.25-24.41Z"/>
    <path fill="#fff" stroke="#231815" d="m56.82 200.52-7 8.59L129 214s-21.33-19.48-33.29-19.36-38.89 5.88-38.89 5.88Z"/>
    <path fill="url(#m)" stroke="#231815" d="M199.51 264.39s-34.69-53.5-142.69-64.66l33.5-31.15c56.16 20.61 97.1 49.94 109.19 95.81Z"/>
    <path fill="url(#n)" stroke="#020202" d="M101.46 145.3c2.6-1.29 71.64 50.65 85.76 86.27 9.61 24.25 10.31 24.13 12.29 33.6 0 0-25.85-64-115.85-109Z"/>
    <path fill="url(#o)" stroke="#231815" d="m177.32 98.86-4 6 12.2 105.33 14 55s-11.82-127.58-22.2-166.33Z"/>
    <path fill="url(#p)" stroke="#231815" d="m185.52 210.19 14 55c-9.68-38-55.94-96-103.85-123.31l17-6s65.05 45.12 72.85 74.31Z"/>
    <path fill="#fff" stroke="#231815" d="M385.82 277s-24.45-26.4-27.12-46c0 0-131.78-20.64-152 34.72l17.23 9.79S260 263.21 317 264.57c33.32.79 40 12.19 68.82 12.43Zm-368.25 1.86s26.63-20.5 28.25-40.25c0 0 130.5-27.63 153.69 26.56l-16.69 10.69s-37.55-19.16-93.33-7.45-69.29 12.7-71.92 10.45Z"/>
  </g>
  <g fill="#ccccca" data-name="レイヤー 13">
    <path d="m207.83 266.38 1.86 1.05c9.65-7.78 34.13-26.67 68-26.23-33.87 2.8-42.5 4.16-69.86 25.18Zm6.48 3.62 1.35.77c28.16-15.07 76.85-20.41 112.5-17.91-35.65-1-91.29 2.93-113.85 17.14Z"/>
    <path d="m211 268.33.91.34c9.87-7.93 23.32-16.18 35.08-17.27-10.75-.4-27.99 9.34-35.99 16.93Zm8 4.46.91.34c8-5.7 20.67-8.88 26.12-9.52-.03 0-17.98 2.03-27.03 9.18Zm-23.45-5.16 2.77-.69C188 258.67 159.86 240.13 134 240.3c10.1-.94 42.09 3.7 61.55 27.33Z"/>
    <path d="m193.83 268.84-1.1.55c-11.26-9.77-22.09-15.12-28.26-17.31 0 0 24.8 11.68 29.36 16.76Z"/>
    <path d="m191.43 270-1.11.6c-3.28-4-44.29-22.22-61.53-21.14 9.21-1.27 58.33 14.9 62.64 20.54Z"/>
    <path d="m188 272-1.19.76c-12.57-9.33-52.71-17.2-80.39-14.57 23.78-.92 64.28 2.68 81.58 13.81Z"/>
  </g>
  <path fill="url(#q)" d="M182.25 275.58s16.51-11.51 20.39-11.59 22 11.5 22 11.5-21.02 13.22-42.39.09Z" data-name="レイヤー 7"/>
</svg>