<svg xmlns="http://www.w3.org/2000/svg" width="613.53" height="35" viewBox="0 0 613.53 35"><rect class="svg__rect" x="0" y="0" width="115.31" height="35" fill="#31C4F3"/><rect class="svg__rect" x="113.31" y="0" width="500.22" height="35" fill="#389AD5"/><path class="svg__text" d="M15.69 22L14.22 22L14.22 13.47L16.14 13.47L18.60 20.01L21.06 13.47L22.97 13.47L22.97 22L21.49 22L21.49 19.19L21.64 15.43L19.12 22L18.06 22L15.55 15.43L15.69 19.19L15.69 22ZM28.49 22L26.95 22L30.17 13.47L31.50 13.47L34.73 22L33.18 22L32.49 20.01L29.18 20.01L28.49 22ZM30.83 15.28L29.60 18.82L32.07 18.82L30.83 15.28ZM41.14 22L38.69 22L38.69 13.47L41.21 13.47Q42.34 13.47 43.21 13.97Q44.09 14.48 44.57 15.40Q45.05 16.33 45.05 17.52L45.05 17.52L45.05 17.95Q45.05 19.16 44.57 20.08Q44.08 21.00 43.19 21.50Q42.30 22 41.14 22L41.14 22ZM40.17 14.66L40.17 20.82L41.14 20.82Q42.30 20.82 42.93 20.09Q43.55 19.36 43.56 17.99L43.56 17.99L43.56 17.52Q43.56 16.13 42.96 15.40Q42.35 14.66 41.21 14.66L41.21 14.66L40.17 14.66ZM55.09 22L49.51 22L49.51 13.47L55.05 13.47L55.05 14.66L51.00 14.66L51.00 17.02L54.50 17.02L54.50 18.19L51.00 18.19L51.00 20.82L55.09 20.82L55.09 22ZM66.65 22L64.68 13.47L66.15 13.47L67.47 19.88L69.10 13.47L70.34 13.47L71.96 19.89L73.27 13.47L74.74 13.47L72.77 22L71.35 22L69.73 15.77L68.07 22L66.65 22ZM80.38 22L78.90 22L78.90 13.47L80.38 13.47L80.38 22ZM86.87 14.66L84.23 14.66L84.23 13.47L91.00 13.47L91.00 14.66L88.34 14.66L88.34 22L86.87 22L86.87 14.66ZM96.24 22L94.75 22L94.75 13.47L96.24 13.47L96.24 17.02L100.05 17.02L100.05 13.47L101.53 13.47L101.53 22L100.05 22L100.05 18.21L96.24 18.21L96.24 22Z" fill="#FFFFFF"/><path class="svg__text" d="M129.88 22L127.50 22L127.50 13.60L131.34 13.60Q132.48 13.60 133.32 13.98Q134.16 14.35 134.62 15.06Q135.07 15.76 135.07 16.71L135.07 16.71Q135.07 17.62 134.65 18.30Q134.22 18.98 133.43 19.36L133.43 19.36L135.24 22L132.70 22L131.17 19.77L129.88 19.77L129.88 22ZM129.88 15.47L129.88 17.93L131.20 17.93Q131.93 17.93 132.30 17.61Q132.67 17.29 132.67 16.71L132.67 16.71Q132.67 16.12 132.30 15.79Q131.93 15.47 131.20 15.47L131.20 15.47L129.88 15.47ZM146.61 22L139.86 22L139.86 13.60L146.45 13.60L146.45 15.44L142.22 15.44L142.22 16.85L145.95 16.85L145.95 18.63L142.22 18.63L142.22 20.17L146.61 20.17L146.61 22ZM152.83 22L150.40 22L154.11 13.60L156.45 13.60L160.17 22L157.70 22L157.04 20.37L153.49 20.37L152.83 22ZM155.27 15.93L154.18 18.61L156.34 18.61L155.27 15.93ZM163.90 17.80L163.90 17.80Q163.90 16.54 164.49 15.54Q165.09 14.55 166.14 13.99Q167.20 13.43 168.51 13.43L168.51 13.43Q169.67 13.43 170.59 13.84Q171.51 14.25 172.13 15.02L172.13 15.02L170.62 16.39Q169.80 15.40 168.64 15.40L168.64 15.40Q167.95 15.40 167.42 15.70Q166.88 16 166.59 16.54Q166.29 17.09 166.29 17.80L166.29 17.80Q166.29 18.51 166.59 19.05Q166.88 19.60 167.42 19.90Q167.95 20.20 168.64 20.20L168.64 20.20Q169.80 20.20 170.62 19.22L170.62 19.22L172.13 20.58Q171.52 21.35 170.59 21.76Q169.67 22.17 168.51 22.17L168.51 22.17Q167.20 22.17 166.14 21.61Q165.09 21.05 164.49 20.05Q163.90 19.06 163.90 17.80ZM178.46 15.48L175.87 15.48L175.87 13.60L183.40 13.60L183.40 15.48L180.83 15.48L180.83 22L178.46 22L178.46 15.48ZM196.83 24.33L194.74 24.33L194.74 13.09L196.83 13.09L196.83 24.33ZM212.94 22L208.97 22L208.97 13.60L212.94 13.60Q214.32 13.60 215.39 14.12Q216.45 14.63 217.04 15.58Q217.63 16.53 217.63 17.80L217.63 17.80Q217.63 19.07 217.04 20.02Q216.45 20.97 215.39 21.48Q214.32 22 212.94 22L212.94 22ZM211.35 15.50L211.35 20.10L212.85 20.10Q213.92 20.10 214.58 19.49Q215.23 18.88 215.23 17.80L215.23 17.80Q215.23 16.72 214.58 16.11Q213.92 15.50 212.85 15.50L212.85 15.50L211.35 15.50ZM221.28 20.93L221.28 20.93L222.58 19.40Q223.25 20.27 224.02 20.27L224.02 20.27Q224.03 20.27 224.03 20.27L224.03 20.27Q224.55 20.27 224.82 19.96Q225.09 19.65 225.09 19.05L225.09 19.05L225.09 15.44L222.19 15.44L222.19 13.60L227.44 13.60L227.44 18.91Q227.44 20.54 226.62 21.36Q225.79 22.17 224.20 22.17L224.20 22.17Q223.28 22.17 222.52 21.85Q221.76 21.53 221.28 20.93ZM233.95 22L231.52 22L235.23 13.60L237.57 13.60L241.29 22L238.82 22L238.16 20.37L234.61 20.37L233.95 22ZM236.38 15.93L235.30 18.61L237.46 18.61L236.38 15.93ZM247.77 22L245.44 22L245.44 13.60L247.40 13.60L251.11 18.07L251.11 13.60L253.43 13.60L253.43 22L251.48 22L247.77 17.52L247.77 22ZM258.17 17.80L258.17 17.80Q258.17 16.54 258.77 15.54Q259.36 14.55 260.43 13.99Q261.50 13.43 262.84 13.43L262.84 13.43Q264.02 13.43 264.96 13.83Q265.90 14.22 266.52 14.97L266.52 14.97L265.01 16.33Q264.16 15.40 262.98 15.40L262.98 15.40Q262.97 15.40 262.97 15.40L262.97 15.40Q261.89 15.40 261.23 16.06Q260.56 16.71 260.56 17.80L260.56 17.80Q260.56 18.50 260.87 19.04Q261.17 19.59 261.71 19.89Q262.25 20.20 262.94 20.20L262.94 20.20Q263.63 20.20 264.23 19.93L264.23 19.93L264.23 17.62L266.32 17.62L266.32 21.10Q265.60 21.61 264.67 21.89Q263.73 22.17 262.80 22.17L262.80 22.17Q261.48 22.17 260.42 21.61Q259.36 21.05 258.77 20.05Q258.17 19.06 258.17 17.80ZM270.89 17.80L270.89 17.80Q270.89 16.55 271.49 15.55Q272.10 14.56 273.16 14.00Q274.22 13.43 275.55 13.43L275.55 13.43Q276.88 13.43 277.95 14.00Q279.01 14.56 279.62 15.55Q280.22 16.55 280.22 17.80L280.22 17.80Q280.22 19.05 279.62 20.04Q279.01 21.04 277.95 21.60Q276.89 22.17 275.55 22.17L275.55 22.17Q274.22 22.17 273.16 21.60Q272.10 21.04 271.49 20.04Q270.89 19.05 270.89 17.80ZM273.29 17.80L273.29 17.80Q273.29 18.51 273.59 19.05Q273.89 19.60 274.40 19.90Q274.92 20.20 275.55 20.20L275.55 20.20Q276.19 20.20 276.71 19.90Q277.22 19.60 277.52 19.05Q277.82 18.51 277.82 17.80L277.82 17.80Q277.82 17.09 277.52 16.54Q277.22 16 276.71 15.70Q276.19 15.40 275.55 15.40L275.55 15.40Q274.91 15.40 274.40 15.70Q273.89 16 273.59 16.54Q273.29 17.09 273.29 17.80ZM294.30 22L291.92 22L291.92 13.60L295.77 13.60Q296.91 13.60 297.75 13.98Q298.59 14.35 299.04 15.06Q299.50 15.76 299.50 16.71L299.50 16.71Q299.50 17.62 299.07 18.30Q298.64 18.98 297.85 19.36L297.85 19.36L299.66 22L297.12 22L295.60 19.77L294.30 19.77L294.30 22ZM294.30 15.47L294.30 17.93L295.62 17.93Q296.35 17.93 296.73 17.61Q297.10 17.29 297.10 16.71L297.10 16.71Q297.10 16.12 296.73 15.79Q296.35 15.47 295.62 15.47L295.62 15.47L294.30 15.47ZM311.03 22L304.29 22L304.29 13.60L310.88 13.60L310.88 15.44L306.64 15.44L306.64 16.85L310.37 16.85L310.37 18.63L306.64 18.63L306.64 20.17L311.03 20.17L311.03 22ZM315.25 21.24L315.25 21.24L316.03 19.49Q316.59 19.86 317.34 20.09Q318.08 20.32 318.80 20.32L318.80 20.32Q320.17 20.32 320.17 19.64L320.17 19.64Q320.17 19.28 319.78 19.11Q319.39 18.93 318.53 18.74L318.53 18.74Q317.58 18.53 316.94 18.30Q316.30 18.06 315.85 17.55Q315.40 17.03 315.40 16.16L315.40 16.16Q315.40 15.39 315.82 14.77Q316.23 14.15 317.07 13.79Q317.90 13.43 319.11 13.43L319.11 13.43Q319.94 13.43 320.74 13.62Q321.55 13.80 322.16 14.17L322.16 14.17L321.43 15.93Q320.23 15.28 319.10 15.28L319.10 15.28Q318.39 15.28 318.07 15.49Q317.75 15.70 317.75 16.04L317.75 16.04Q317.75 16.37 318.13 16.54Q318.51 16.71 319.36 16.89L319.36 16.89Q320.32 17.10 320.95 17.33Q321.58 17.56 322.05 18.07Q322.51 18.58 322.51 19.46L322.51 19.46Q322.51 20.21 322.09 20.83Q321.67 21.44 320.83 21.80Q319.99 22.17 318.79 22.17L318.79 22.17Q317.77 22.17 316.81 21.92Q315.85 21.67 315.25 21.24ZM328.88 15.48L326.29 15.48L326.29 13.60L333.82 13.60L333.82 15.48L331.25 15.48L331.25 22L328.88 22L328.88 15.48ZM347.54 22L345.16 22L345.16 13.60L351.75 13.60L351.75 15.44L347.54 15.44L347.54 17.28L351.25 17.28L351.25 19.12L347.54 19.12L347.54 22ZM358.73 22L356.35 22L356.35 13.60L360.19 13.60Q361.33 13.60 362.17 13.98Q363.01 14.35 363.47 15.06Q363.92 15.76 363.92 16.71L363.92 16.71Q363.92 17.62 363.50 18.30Q363.07 18.98 362.28 19.36L362.28 19.36L364.09 22L361.54 22L360.02 19.77L358.73 19.77L358.73 22ZM358.73 15.47L358.73 17.93L360.04 17.93Q360.78 17.93 361.15 17.61Q361.52 17.29 361.52 16.71L361.52 16.71Q361.52 16.12 361.15 15.79Q360.78 15.47 360.04 15.47L360.04 15.47L358.73 15.47ZM370.13 22L367.70 22L371.41 13.60L373.76 13.60L377.47 22L375.00 22L374.34 20.37L370.79 20.37L370.13 22ZM372.57 15.93L371.48 18.61L373.64 18.61L372.57 15.93ZM383.82 22L381.62 22L381.62 13.60L383.58 13.60L386.54 18.45L389.42 13.60L391.37 13.60L391.39 22L389.21 22L389.19 17.55L387.03 21.17L385.97 21.17L383.82 17.67L383.82 22ZM403.30 22L396.55 22L396.55 13.60L403.15 13.60L403.15 15.44L398.91 15.44L398.91 16.85L402.64 16.85L402.64 18.63L398.91 18.63L398.91 20.17L403.30 20.17L403.30 22ZM410.18 22L407.46 13.60L409.91 13.60L411.60 18.96L413.37 13.60L415.56 13.60L417.25 19.01L419.01 13.60L421.28 13.60L418.56 22L416.01 22L414.41 16.89L412.73 22L410.18 22ZM425.37 17.80L425.37 17.80Q425.37 16.55 425.97 15.55Q426.57 14.56 427.64 14.00Q428.70 13.43 430.03 13.43L430.03 13.43Q431.36 13.43 432.42 14.00Q433.49 14.56 434.09 15.55Q434.70 16.55 434.70 17.80L434.70 17.80Q434.70 19.05 434.09 20.04Q433.49 21.04 432.43 21.60Q431.37 22.17 430.03 22.17L430.03 22.17Q428.70 22.17 427.64 21.60Q426.57 21.04 425.97 20.04Q425.37 19.05 425.37 17.80ZM427.76 17.80L427.76 17.80Q427.76 18.51 428.06 19.05Q428.37 19.60 428.88 19.90Q429.40 20.20 430.03 20.20L430.03 20.20Q430.67 20.20 431.18 19.90Q431.70 19.60 432.00 19.05Q432.30 18.51 432.30 17.80L432.30 17.80Q432.30 17.09 432.00 16.54Q431.70 16 431.18 15.70Q430.67 15.40 430.03 15.40L430.03 15.40Q429.39 15.40 428.88 15.70Q428.37 16 428.06 16.54Q427.76 17.09 427.76 17.80ZM441.81 22L439.43 22L439.43 13.60L443.27 13.60Q444.41 13.60 445.25 13.98Q446.09 14.35 446.55 15.06Q447.00 15.76 447.00 16.71L447.00 16.71Q447.00 17.62 446.58 18.30Q446.15 18.98 445.36 19.36L445.36 19.36L447.17 22L444.62 22L443.10 19.77L441.81 19.77L441.81 22ZM441.81 15.47L441.81 17.93L443.12 17.93Q443.86 17.93 444.23 17.61Q444.60 17.29 444.60 16.71L444.60 16.71Q444.60 16.12 444.23 15.79Q443.86 15.47 443.12 15.47L443.12 15.47L441.81 15.47ZM454.15 22L451.79 22L451.79 13.60L454.15 13.60L454.15 17.09L457.40 13.60L460.01 13.60L456.58 17.32L460.19 22L457.43 22L455.03 18.95L454.15 19.90L454.15 22ZM473.37 24.33L471.27 24.33L471.27 13.09L473.37 13.09L473.37 24.33ZM487.88 22L485.50 22L485.50 13.60L489.34 13.60Q490.48 13.60 491.32 13.98Q492.16 14.35 492.62 15.06Q493.08 15.76 493.08 16.71L493.08 16.71Q493.08 17.66 492.62 18.35Q492.16 19.05 491.32 19.42Q490.48 19.80 489.34 19.80L489.34 19.80L487.88 19.80L487.88 22ZM487.88 15.47L487.88 17.93L489.20 17.93Q489.93 17.93 490.30 17.61Q490.67 17.29 490.67 16.71L490.67 16.71Q490.67 16.12 490.30 15.80Q489.93 15.47 489.20 15.47L489.20 15.47L487.88 15.47ZM497.40 17.80L497.40 17.80Q497.40 16.55 498.00 15.55Q498.61 14.56 499.67 14.00Q500.73 13.43 502.06 13.43L502.06 13.43Q503.39 13.43 504.46 14.00Q505.52 14.56 506.13 15.55Q506.73 16.55 506.73 17.80L506.73 17.80Q506.73 19.05 506.13 20.04Q505.52 21.04 504.46 21.60Q503.40 22.17 502.06 22.17L502.06 22.17Q500.73 22.17 499.67 21.60Q498.61 21.04 498.00 20.04Q497.40 19.05 497.40 17.80ZM499.80 17.80L499.80 17.80Q499.80 18.51 500.10 19.05Q500.40 19.60 500.92 19.90Q501.43 20.20 502.06 20.20L502.06 20.20Q502.70 20.20 503.22 19.90Q503.73 19.60 504.03 19.05Q504.33 18.51 504.33 17.80L504.33 17.80Q504.33 17.09 504.03 16.54Q503.73 16 503.22 15.70Q502.70 15.40 502.06 15.40L502.06 15.40Q501.43 15.40 500.91 15.70Q500.40 16 500.10 16.54Q499.80 17.09 499.80 17.80ZM510.88 21.24L510.88 21.24L511.66 19.49Q512.22 19.86 512.96 20.09Q513.71 20.32 514.43 20.32L514.43 20.32Q515.79 20.32 515.80 19.64L515.80 19.64Q515.80 19.28 515.41 19.11Q515.02 18.93 514.15 18.74L514.15 18.74Q513.20 18.53 512.57 18.30Q511.93 18.06 511.48 17.55Q511.02 17.03 511.02 16.16L511.02 16.16Q511.02 15.39 511.44 14.77Q511.86 14.15 512.70 13.79Q513.53 13.43 514.74 13.43L514.74 13.43Q515.56 13.43 516.37 13.62Q517.18 13.80 517.79 14.17L517.79 14.17L517.06 15.93Q515.86 15.28 514.73 15.28L514.73 15.28Q514.02 15.28 513.70 15.49Q513.37 15.70 513.37 16.04L513.37 16.04Q513.37 16.37 513.76 16.54Q514.14 16.71 514.99 16.89L514.99 16.89Q515.95 17.10 516.58 17.33Q517.21 17.56 517.67 18.07Q518.14 18.58 518.14 19.46L518.14 19.46Q518.14 20.21 517.72 20.83Q517.30 21.44 516.46 21.80Q515.62 22.17 514.42 22.17L514.42 22.17Q513.40 22.17 512.44 21.92Q511.47 21.67 510.88 21.24ZM524.51 15.48L521.92 15.48L521.92 13.60L529.45 13.60L529.45 15.48L526.88 15.48L526.88 22L524.51 22L524.51 15.48ZM533.39 17.80L533.39 17.80Q533.39 16.54 533.99 15.54Q534.58 14.55 535.65 13.99Q536.72 13.43 538.06 13.43L538.06 13.43Q539.24 13.43 540.18 13.83Q541.12 14.22 541.74 14.97L541.74 14.97L540.23 16.33Q539.38 15.40 538.20 15.40L538.20 15.40Q538.19 15.40 538.19 15.40L538.19 15.40Q537.11 15.40 536.45 16.06Q535.78 16.71 535.78 17.80L535.78 17.80Q535.78 18.50 536.09 19.04Q536.39 19.59 536.93 19.89Q537.47 20.20 538.16 20.20L538.16 20.20Q538.85 20.20 539.45 19.93L539.45 19.93L539.45 17.62L541.54 17.62L541.54 21.10Q540.82 21.61 539.89 21.89Q538.95 22.17 538.02 22.17L538.02 22.17Q536.70 22.17 535.64 21.61Q534.58 21.05 533.99 20.05Q533.39 19.06 533.39 17.80ZM548.92 22L546.54 22L546.54 13.60L550.38 13.60Q551.52 13.60 552.36 13.98Q553.20 14.35 553.66 15.06Q554.11 15.76 554.11 16.71L554.11 16.71Q554.11 17.62 553.69 18.30Q553.26 18.98 552.47 19.36L552.47 19.36L554.28 22L551.73 22L550.21 19.77L548.92 19.77L548.92 22ZM548.92 15.47L548.92 17.93L550.23 17.93Q550.97 17.93 551.34 17.61Q551.71 17.29 551.71 16.71L551.71 16.71Q551.71 16.12 551.34 15.79Q550.97 15.47 550.23 15.47L550.23 15.47L548.92 15.47ZM565.64 22L558.90 22L558.90 13.60L565.49 13.60L565.49 15.44L561.26 15.44L561.26 16.85L564.99 16.85L564.99 18.63L561.26 18.63L561.26 20.17L565.64 20.17L565.64 22ZM569.86 21.24L569.86 21.24L570.64 19.49Q571.20 19.86 571.95 20.09Q572.69 20.32 573.41 20.32L573.41 20.32Q574.78 20.32 574.78 19.64L574.78 19.64Q574.78 19.28 574.40 19.11Q574.01 18.93 573.14 18.74L573.14 18.74Q572.19 18.53 571.55 18.30Q570.92 18.06 570.46 17.55Q570.01 17.03 570.01 16.16L570.01 16.16Q570.01 15.39 570.43 14.77Q570.85 14.15 571.68 13.79Q572.52 13.43 573.72 13.43L573.72 13.43Q574.55 13.43 575.36 13.62Q576.16 13.80 576.78 14.17L576.78 14.17L576.04 15.93Q574.84 15.28 573.71 15.28L573.71 15.28Q573.00 15.28 572.68 15.49Q572.36 15.70 572.36 16.04L572.36 16.04Q572.36 16.37 572.74 16.54Q573.13 16.71 573.98 16.89L573.98 16.89Q574.94 17.10 575.57 17.33Q576.20 17.56 576.66 18.07Q577.12 18.58 577.12 19.46L577.12 19.46Q577.12 20.21 576.70 20.83Q576.28 21.44 575.44 21.80Q574.60 22.17 573.40 22.17L573.40 22.17Q572.38 22.17 571.42 21.92Q570.46 21.67 569.86 21.24ZM581.27 17.80L581.27 17.80Q581.27 16.55 581.87 15.55Q582.48 14.56 583.54 14.00Q584.61 13.43 585.94 13.43L585.94 13.43Q587.27 13.43 588.33 14.00Q589.39 14.56 590.00 15.55Q590.61 16.55 590.61 17.80L590.61 17.80Q590.61 19.22 589.83 20.30Q589.06 21.39 587.75 21.85L587.75 21.85Q587.99 22.12 588.22 22.23Q588.45 22.33 588.73 22.33L588.73 22.33Q589.44 22.33 590.01 21.75L590.01 21.75L591.04 22.97Q590.62 23.49 590.01 23.76Q589.40 24.03 588.68 24.03L588.68 24.03Q587.99 24.03 587.42 23.85Q586.86 23.67 586.29 23.25Q585.72 22.84 585.02 22.09L585.02 22.09Q583.93 21.91 583.07 21.31Q582.21 20.72 581.74 19.81Q581.27 18.89 581.27 17.80ZM583.67 17.80L583.67 17.80Q583.67 18.51 583.97 19.05Q584.27 19.60 584.79 19.90Q585.30 20.20 585.94 20.20L585.94 20.20Q586.57 20.20 587.09 19.90Q587.61 19.60 587.90 19.05Q588.20 18.51 588.20 17.80L588.20 17.80Q588.20 17.09 587.90 16.54Q587.61 16 587.09 15.70Q586.57 15.40 585.94 15.40L585.94 15.40Q585.30 15.40 584.78 15.70Q584.27 16 583.97 16.54Q583.67 17.09 583.67 17.80ZM601.72 22L595.33 22L595.33 13.60L597.71 13.60L597.71 20.11L601.72 20.11L601.72 22Z" fill="#FFFFFF" x="126.31"/></svg>